<?xml version="1.0" standalone="no"?><!DOCTYPE svg PUBLIC "-//W3C//DTD SVG 1.1//EN" "http://www.w3.org/Graphics/SVG/1.1/DTD/svg11.dtd"><svg t="1519635174133" class="icon" style="" viewBox="0 0 1024 1024" version="1.1" xmlns="http://www.w3.org/2000/svg" p-id="5227" xmlns:xlink="http://www.w3.org/1999/xlink" width="20" height="20"><defs><style type="text/css"></style></defs><path d="M863.29 161.545C769.409 68.08 644.559 16.696 511.654 16.696c-132.766 0-257.756 51.523-351.636 144.988C66.137 255.149 14.336 379.443 14.336 511.793S66.138 768.437 160.018 862.04c93.881 93.465 218.87 144.988 351.636 144.988S769.41 955.505 863.29 862.04c94.019-93.603 145.821-217.898 145.682-350.247 0.139-132.35-51.662-256.644-145.682-350.247M760.381 547.344H547.204v213.177c0 19.582-15.971 35.552-35.552 35.552S476.1 780.242 476.1 760.521V547.344H263.063c-19.582 0-35.552-15.971-35.552-35.552s15.971-35.552 35.552-35.552H476.24V263.063c0-19.582 15.971-35.552 35.552-35.552 19.582 0 35.552 15.971 35.552 35.552V476.24h213.177c19.582 0 35.552 15.971 35.552 35.552-0.139 19.582-15.971 35.552-35.692 35.552m0 0z" fill="#57bc72" p-id="5228"></path></svg>