<?xml version="1.0" standalone="no"?><!DOCTYPE svg PUBLIC "-//W3C//DTD SVG 1.1//EN" "http://www.w3.org/Graphics/SVG/1.1/DTD/svg11.dtd"><svg t="1519635002840" class="icon" style="" viewBox="0 0 1024 1024" version="1.1" xmlns="http://www.w3.org/2000/svg" p-id="4408" xmlns:xlink="http://www.w3.org/1999/xlink" width="18" height="18"><defs><style type="text/css"></style></defs><path d="M512 64C264.58 64 64 264.58 64 512s200.58 448 448 448 448-200.58 448-448S759.42 64 512 64z m0 832c-212.08 0-384-171.92-384-384s171.92-384 384-384 384 171.92 384 384-171.92 384-384 384z" p-id="4409" fill="#57bc72"></path><path d="M704 480H320a32 32 0 0 0 0 64h384a32 32 0 0 0 0-64z" p-id="4410" fill="#57bc72"></path></svg>